<?xml version="1.0" standalone="no"?>
<!DOCTYPE svg PUBLIC "-//W3C//DTD SVG 20010904//EN"
 "http://www.w3.org/TR/2001/REC-SVG-20010904/DTD/svg10.dtd">
<svg version="1.0" xmlns="http://www.w3.org/2000/svg"
 width="1920.000000pt" height="1920.000000pt" viewBox="0 0 1920.000000 1920.000000"
 preserveAspectRatio="xMidYMid meet">
<metadata>
Created by potrace 1.14, written by Peter Selinger 2001-2017
</metadata>
<g transform="translate(0.000000,1920.000000) scale(0.100000,-0.100000)"
fill="#000000" stroke="none">
<path d="M9604 15507 c-6 -12 -20 -40 -32 -62 -23 -44 -37 -132 -52 -337 -6
-76 -14 -148 -19 -160 -5 -13 -17 -50 -27 -83 -22 -73 -92 -212 -136 -268 -82
-109 -338 -339 -573 -517 -155 -118 -226 -181 -320 -287 -180 -202 -196 -263
-155 -593 14 -112 38 -279 50 -335 5 -27 16 -90 25 -140 8 -49 20 -112 25
-140 6 -27 17 -90 25 -140 8 -49 17 -103 21 -120 3 -16 12 -66 20 -110 8 -44
19 -98 24 -120 5 -22 19 -85 31 -140 12 -55 28 -125 36 -155 8 -30 19 -75 25
-100 5 -25 13 -54 17 -65 5 -11 17 -49 26 -85 9 -36 21 -74 25 -85 4 -11 29
-85 54 -165 26 -80 51 -154 55 -165 5 -11 13 -31 19 -45 31 -75 183 -493 196
-540 70 -252 58 -441 -42 -671 -75 -174 -114 -308 -147 -509 -9 -52 -21 -126
-28 -165 -17 -101 -17 -799 1 -880 8 -33 20 -91 28 -130 8 -38 19 -86 24 -105
11 -39 74 -293 95 -380 12 -51 54 -215 120 -465 14 -55 35 -129 45 -165 52
-177 82 -318 95 -450 17 -154 13 -225 -23 -435 -12 -72 -16 -151 -15 -280 1
-191 13 -274 69 -475 43 -155 54 -214 90 -505 37 -293 43 -380 36 -555 -11
-312 -10 -349 18 -398 16 -28 42 -54 70 -70 44 -26 50 -27 194 -26 82 1 173 7
201 14 62 15 122 54 153 100 23 34 24 40 19 165 -3 72 -11 153 -17 182 -8 35
-10 138 -7 315 5 262 11 323 52 493 9 39 24 99 31 135 8 36 19 81 24 100 5 19
16 64 24 100 8 36 22 94 31 130 22 91 29 311 16 465 -38 427 -30 635 33 843
47 154 63 208 81 282 8 30 19 73 25 95 6 22 17 67 25 100 22 98 58 243 85 343
6 20 15 57 20 82 5 25 17 74 25 110 9 36 23 97 31 135 9 39 20 88 25 110 105
436 102 833 -6 1176 -15 46 -31 93 -35 104 -5 11 -23 67 -40 125 -17 58 -35
116 -40 130 -5 14 -21 70 -36 125 -24 88 -28 123 -32 290 -4 178 3 264 27 360
5 22 15 63 21 90 6 28 15 59 19 70 5 11 23 65 40 120 18 55 36 109 40 120 5
11 23 61 41 110 18 50 36 99 40 110 87 214 178 522 230 775 11 52 24 115 30
140 5 25 14 81 20 125 6 44 15 109 20 145 6 36 17 117 25 180 8 63 18 142 24
175 5 33 17 107 26 164 9 58 18 107 20 111 12 20 45 444 40 515 -15 181 -53
242 -270 420 -33 27 -125 112 -205 190 -157 152 -232 219 -382 338 -53 42
-112 96 -131 120 -38 46 -104 161 -125 217 -62 166 -80 242 -113 495 -11 88
-28 193 -36 233 -15 67 -18 72 -42 72 -17 0 -30 -8 -37 -23z m64 -1011 c33
-18 104 -92 165 -172 52 -69 154 -178 388 -414 90 -91 177 -183 193 -205 17
-22 36 -44 43 -48 7 -4 13 -14 13 -22 0 -7 4 -15 8 -17 12 -5 52 -78 70 -127
21 -59 20 -210 -1 -311 -9 -41 -19 -95 -22 -120 -4 -25 -9 -54 -12 -65 -3 -11
-9 -39 -13 -61 -5 -23 -27 -106 -50 -185 -23 -79 -43 -151 -45 -159 -1 -8 -23
-65 -48 -126 -85 -213 -141 -272 -367 -383 -20 -10 -99 -6 -132 7 -45 18 -61
55 -66 149 -3 66 -1 93 13 124 10 21 22 39 26 39 4 0 10 8 14 18 3 9 26 39 51
67 25 27 51 62 59 77 8 16 22 42 31 58 9 17 17 39 19 48 2 9 4 17 5 17 1 0 3
8 5 17 2 9 9 34 16 55 14 41 18 281 6 348 -4 22 -10 56 -13 75 -7 43 -48 140
-78 189 -13 20 -46 59 -74 86 -91 90 -202 135 -332 135 -176 0 -277 -61 -360
-218 -31 -57 -72 -155 -77 -185 -31 -184 -33 -204 -23 -292 24 -200 72 -298
236 -483 65 -73 95 -221 59 -289 -15 -27 -29 -36 -72 -49 -29 -8 -62 -13 -72
-9 -11 3 -28 8 -39 10 -29 5 -115 61 -142 92 -65 74 -123 175 -169 292 -43
110 -96 266 -106 311 -2 8 -21 87 -44 175 -39 156 -45 182 -57 255 -3 19 -9
54 -14 78 -33 181 71 380 343 655 56 56 122 127 147 156 25 30 52 61 60 70 9
9 45 49 80 90 96 110 217 227 253 245 40 20 90 20 125 2z"/>
<path d="M2908 12639 c-71 -10 -127 -38 -187 -94 -25 -23 -55 -47 -67 -53 -35
-18 -108 -42 -130 -42 -63 0 -224 -123 -224 -170 0 -67 60 -92 236 -98 149 -5
294 14 427 55 151 46 324 41 515 -13 129 -37 311 -133 622 -327 80 -50 190
-111 245 -135 55 -24 118 -52 140 -62 22 -9 51 -21 65 -24 26 -8 40 -13 102
-40 20 -9 40 -16 45 -16 5 0 27 -15 49 -34 53 -45 68 -91 57 -176 -14 -110 22
-217 112 -332 98 -125 201 -158 495 -158 258 0 284 -11 386 -166 49 -75 91
-127 125 -154 75 -59 296 -194 439 -268 69 -36 150 -81 180 -100 91 -59 532
-518 589 -613 31 -52 60 -160 61 -224 0 -110 -45 -268 -101 -356 -61 -93 -85
-142 -112 -223 -41 -121 -49 -182 -45 -347 l3 -155 -53 58 c-62 67 -144 119
-234 151 -53 18 -84 21 -203 21 -94 0 -166 -6 -220 -18 -381 -82 -733 -354
-895 -691 -28 -57 -50 -106 -50 -108 0 -6 -112 -210 -122 -222 -5 -5 -37 -54
-72 -107 -35 -53 -89 -130 -119 -170 -45 -61 -117 -161 -267 -373 -12 -16 -65
-93 -118 -170 -77 -111 -135 -179 -284 -332 -104 -106 -188 -197 -188 -202 0
-5 -6 -16 -12 -23 -14 -15 -17 -20 -83 -140 -64 -114 -136 -200 -269 -318
-116 -103 -179 -173 -296 -328 -73 -97 -181 -193 -272 -240 -210 -112 -256
-138 -345 -195 -54 -35 -138 -97 -188 -138 -154 -127 -312 -239 -432 -306 -27
-14 -50 -29 -53 -32 -3 -3 -14 -11 -26 -17 -11 -7 -76 -43 -145 -81 -151 -85
-543 -282 -619 -311 -30 -12 -95 -30 -145 -42 -49 -11 -108 -24 -130 -30 -22
-5 -71 -16 -110 -24 -38 -9 -100 -30 -137 -48 -62 -29 -68 -34 -68 -62 0 -25
9 -37 41 -59 49 -35 126 -47 224 -36 85 10 231 11 274 3 17 -4 42 -17 56 -30
18 -16 38 -24 63 -24 36 0 38 2 57 51 13 33 36 66 66 93 57 51 165 111 215
120 40 7 94 23 129 37 11 4 36 11 55 14 44 8 169 51 235 81 28 12 75 29 105
38 30 9 64 21 75 26 11 5 36 13 55 19 61 17 223 77 290 108 100 47 186 114
390 308 153 146 243 218 311 251 71 35 152 59 167 50 5 -3 11 -36 14 -74 8
-110 73 -192 203 -258 152 -76 310 -83 570 -27 316 68 606 302 721 580 41 100
28 206 -35 277 -26 29 -87 56 -129 56 -63 0 -77 17 -77 98 0 63 3 74 31 109
30 38 50 49 196 116 42 20 103 53 135 74 74 50 206 128 308 183 233 125 398
278 479 445 39 79 42 88 59 170 21 94 35 216 43 355 8 126 20 169 58 194 44
28 73 21 102 -26 15 -24 80 -95 144 -158 65 -63 163 -173 219 -243 86 -109
100 -132 95 -155 -8 -37 -35 -124 -44 -142 -4 -9 -11 -31 -15 -50 -4 -19 -10
-39 -14 -45 -4 -5 -15 -35 -25 -65 -10 -30 -27 -74 -37 -97 -10 -24 -19 -45
-19 -49 0 -3 -11 -30 -25 -60 -61 -134 -146 -544 -129 -626 3 -14 9 -75 14
-135 4 -59 14 -172 21 -249 13 -143 7 -235 -19 -324 -6 -19 -16 -55 -22 -80
-7 -25 -16 -54 -20 -65 -10 -22 -41 -110 -101 -284 -68 -194 -70 -253 -12
-321 65 -78 141 -100 278 -80 148 22 157 22 194 12 155 -44 696 -80 782 -52
39 13 69 49 69 84 0 23 -58 62 -120 81 -30 9 -64 21 -75 26 -26 11 -183 62
-260 84 -138 39 -266 98 -307 142 -53 56 -57 131 -16 283 41 152 188 572 209
594 5 6 9 17 9 25 0 9 6 28 14 42 15 30 80 220 126 369 18 58 41 124 51 147
10 24 19 46 19 49 0 5 50 112 67 143 4 7 55 -57 135 -172 46 -65 122 -172 170
-237 47 -66 136 -191 197 -278 102 -145 161 -212 336 -379 72 -68 155 -172
191 -238 23 -44 63 -174 73 -237 12 -85 1 -130 -42 -162 -45 -34 -293 -153
-347 -167 -54 -13 -219 -29 -237 -22 -22 8 -69 -17 -84 -43 -11 -22 -11 -30 2
-52 45 -80 138 -98 451 -86 241 9 617 10 725 1 119 -10 203 36 219 119 18 97
-14 185 -112 306 -85 105 -126 171 -153 248 -12 36 -26 74 -31 85 -5 11 -13
36 -19 55 -5 19 -26 80 -46 135 -20 55 -47 132 -60 170 -35 109 -94 264 -127
335 -116 253 -173 337 -353 520 -195 198 -244 261 -337 425 -72 127 -188 362
-188 381 0 20 76 149 170 289 174 257 232 378 290 603 34 129 61 287 85 482 8
74 21 167 27 205 16 98 15 568 -1 675 -7 47 -19 130 -28 185 -35 230 -95 422
-190 605 -87 167 -115 236 -145 355 -35 134 -45 186 -57 275 -24 174 -53 337
-72 400 -80 266 -319 483 -588 534 -117 22 -203 20 -337 -9 -148 -32 -282 -34
-396 -4 -133 34 -180 63 -210 134 -34 81 -33 129 8 310 30 131 29 136 -9 180
-19 22 -55 50 -79 62 -55 28 -157 73 -164 73 -3 0 -30 11 -59 25 -30 13 -67
27 -82 31 -16 4 -32 10 -38 13 -27 18 -93 33 -205 46 -211 24 -369 -9 -478
-101 -21 -16 -52 -36 -70 -44 -52 -21 -96 -3 -366 149 -71 40 -137 77 -145 82
-33 17 -88 38 -141 54 -30 9 -63 21 -72 26 -10 5 -27 9 -37 9 -11 0 -23 5 -26
10 -3 6 -14 10 -24 10 -10 0 -47 9 -82 21 -56 17 -144 43 -244 69 -16 5 -75
20 -130 35 -55 15 -122 33 -150 40 -27 7 -88 23 -135 35 -143 36 -163 41 -220
62 -30 10 -84 30 -120 42 -76 28 -172 37 -252 25z"/>
<path d="M16150 12639 c-30 -4 -89 -22 -130 -39 -64 -26 -251 -81 -330 -97
-14 -2 -32 -7 -40 -11 -8 -3 -37 -11 -65 -18 -59 -14 -216 -56 -300 -79 -118
-33 -170 -46 -198 -52 -15 -3 -30 -9 -33 -14 -3 -5 -14 -9 -24 -9 -19 0 -97
-23 -135 -40 -11 -5 -36 -12 -55 -16 -19 -3 -53 -15 -75 -25 -22 -10 -56 -25
-75 -33 -19 -8 -55 -27 -80 -42 -69 -41 -282 -158 -310 -171 -75 -33 -90 -36
-130 -23 -21 7 -55 27 -76 45 -65 57 -131 83 -243 100 -92 13 -118 13 -232 0
-71 -8 -141 -20 -156 -26 -15 -6 -37 -15 -48 -20 -11 -4 -31 -11 -45 -15 -14
-4 -48 -17 -77 -30 -28 -13 -57 -24 -62 -24 -6 0 -19 -5 -29 -10 -9 -6 -46
-23 -82 -39 -36 -15 -85 -46 -110 -69 -40 -36 -45 -44 -45 -83 0 -24 6 -63 13
-86 6 -24 18 -62 25 -85 14 -51 16 -236 2 -246 -6 -4 -17 -20 -25 -36 -21 -41
-101 -82 -206 -107 -112 -26 -272 -22 -409 9 -172 40 -333 23 -490 -53 -268
-129 -410 -339 -455 -675 -6 -41 -14 -97 -19 -125 -5 -27 -14 -84 -20 -125
-15 -96 -40 -219 -51 -245 -5 -11 -11 -32 -14 -48 -7 -32 -43 -114 -91 -207
-42 -82 -94 -189 -105 -215 -27 -69 -40 -107 -55 -160 -61 -223 -74 -298 -105
-605 -17 -163 -3 -526 30 -740 5 -36 16 -119 25 -185 9 -66 20 -133 25 -150 4
-16 11 -50 15 -75 8 -52 12 -70 55 -205 44 -139 123 -297 225 -450 108 -161
179 -274 201 -320 15 -32 15 -38 0 -69 -9 -19 -16 -39 -16 -45 0 -6 -3 -11 -8
-11 -7 0 -42 -73 -42 -89 0 -5 -3 -11 -7 -13 -5 -1 -30 -46 -57 -98 -106 -203
-181 -303 -382 -505 -151 -152 -218 -244 -303 -413 -75 -150 -97 -206 -237
-617 -31 -88 -59 -169 -64 -180 -5 -11 -18 -49 -30 -84 -21 -63 -87 -169 -183
-293 -101 -130 -114 -266 -32 -340 40 -36 78 -42 220 -37 178 6 411 4 677 -5
183 -7 251 -6 300 4 105 22 146 48 155 103 9 55 -18 69 -142 74 -154 5 -202
20 -394 116 -163 81 -181 98 -181 169 0 62 28 181 61 260 41 97 100 171 263
333 156 155 233 253 466 588 8 12 54 78 102 147 108 156 191 269 199 270 17 1
88 -179 168 -430 35 -110 71 -208 168 -460 14 -36 54 -150 90 -255 35 -104 68
-203 74 -220 6 -16 13 -73 16 -125 4 -84 2 -99 -16 -128 -36 -57 -175 -127
-341 -172 -116 -32 -394 -131 -412 -146 -14 -13 -18 -28 -16 -58 3 -35 8 -43
38 -59 31 -15 57 -17 230 -13 260 7 401 21 578 58 41 9 68 8 125 -3 108 -21
225 -19 262 5 86 56 115 101 115 180 0 58 -18 121 -110 376 -114 320 -124 386
-96 651 24 226 30 395 17 494 -18 130 -74 338 -124 462 -47 114 -107 282 -151
421 l-26 84 67 86 c129 165 216 264 287 324 67 57 89 83 130 151 28 46 104 27
136 -34 6 -10 15 -88 20 -172 15 -231 38 -370 76 -454 13 -28 24 -54 24 -57 0
-3 16 -31 36 -62 51 -80 159 -190 251 -256 73 -53 119 -80 308 -183 39 -20
117 -68 175 -105 58 -38 128 -78 155 -90 195 -86 217 -106 223 -207 6 -88 -9
-109 -82 -115 -77 -6 -127 -41 -161 -114 -24 -50 -27 -67 -22 -122 3 -35 10
-69 16 -75 6 -6 11 -18 11 -27 0 -24 102 -183 154 -241 148 -165 357 -289 561
-332 230 -50 379 -49 525 4 149 54 251 171 254 292 2 70 8 75 74 56 116 -31
201 -92 438 -316 220 -207 270 -244 444 -321 25 -11 61 -23 80 -27 19 -4 42
-11 52 -16 10 -5 26 -13 37 -18 10 -5 35 -13 55 -16 20 -4 39 -11 42 -16 3 -5
16 -9 29 -9 13 0 26 -4 29 -9 3 -5 21 -12 39 -15 19 -3 56 -17 83 -30 60 -28
187 -72 234 -81 19 -3 44 -10 55 -14 33 -14 88 -29 126 -35 49 -9 142 -57 206
-109 42 -33 58 -55 76 -99 21 -56 23 -58 59 -58 25 0 45 8 63 24 14 13 42 26
63 30 51 8 183 7 267 -3 90 -10 176 1 215 29 25 18 30 28 30 64 0 42 -1 43
-52 68 -51 25 -88 35 -263 73 -144 32 -223 53 -277 76 -56 24 -480 237 -560
282 -27 15 -67 38 -91 50 -115 64 -392 240 -462 294 -16 13 -34 27 -40 31 -5
4 -39 32 -75 63 -113 98 -260 193 -495 319 -166 90 -274 180 -355 300 -66 97
-167 207 -288 314 -124 108 -192 193 -276 344 -75 133 -128 198 -289 353 -91
87 -155 159 -206 230 -40 57 -140 201 -223 319 -83 118 -190 269 -238 335
-145 200 -217 321 -346 585 -159 326 -520 601 -889 676 -112 23 -317 25 -390
5 -125 -35 -262 -133 -325 -231 -12 -19 -19 -26 -16 -15 8 35 19 168 18 230
-3 194 -49 350 -145 497 -31 47 -57 92 -57 100 0 8 -4 18 -10 24 -11 11 -28
82 -40 174 -10 70 -2 207 11 216 5 3 9 15 9 27 0 35 57 111 210 277 336 365
345 372 625 520 214 113 420 251 465 312 37 50 90 129 90 135 0 3 14 22 30 43
50 64 117 80 324 80 174 0 301 15 368 43 63 26 149 123 198 222 l45 90 0 120
c0 98 3 126 17 147 18 27 78 78 92 78 8 0 69 25 98 41 10 5 23 9 29 9 6 0 25
6 42 14 18 7 57 24 87 36 110 44 207 95 310 160 123 78 235 144 390 229 185
103 338 149 515 158 103 5 120 3 255 -31 191 -47 286 -59 439 -54 109 3 133 7
176 28 84 42 74 94 -34 173 -56 42 -70 47 -200 84 -49 14 -77 29 -116 65 -67
61 -134 94 -215 107 -72 12 -72 12 -150 0z"/>
</g>
</svg>
